<svg aria-hidden="true" style="position: absolute; width: 0; height: 0; overflow: hidden;" version="1.1" xmlns="http://www.w3.org/2000/svg" xmlns:xlink="http://www.w3.org/1999/xlink">
<defs>
<symbol id="quotes" viewBox="0 0 36 32">
<path fill="#3da9f4" style="fill: var(--color1, #3da9f4)" d="M32.369 32c1.835 0 3.323-1.531 3.323-3.419v-8.348c0-1.888-1.488-3.419-3.323-3.419h-4.611c0-1.201 0.069-2.403 0.206-3.604 0.206-1.272 0.55-2.403 1.030-3.392s1.099-1.767 1.855-2.332c0.756-0.636 1.717-0.954 2.885-0.954v-5.3c-1.923 0-3.606 0.424-5.049 1.272s-2.645 1.979-3.607 3.392c-0.893 1.413-1.58 3.074-2.061 4.982-0.412 1.837-0.618 3.816-0.618 5.937v11.767c0 1.888 1.488 3.419 3.323 3.419h6.646z"></path>
<path fill="#3da9f4" style="fill: var(--color1, #3da9f4)" d="M12.431 32c1.835 0 3.323-1.531 3.323-3.419v-8.348c0-1.888-1.488-3.419-3.323-3.419h-4.611c0-1.201 0.069-2.403 0.206-3.604 0.206-1.272 0.55-2.403 1.030-3.392s1.099-1.767 1.855-2.332c0.756-0.636 1.717-0.954 2.885-0.954v-5.3c-1.923 0-3.606 0.424-5.049 1.272s-2.645 1.979-3.606 3.392c-0.893 1.413-1.58 3.074-2.061 4.982-0.412 1.837-0.618 3.816-0.618 5.937v11.767c0 1.888 1.488 3.419 3.323 3.419h6.646z"></path>
<path fill="#fbed1f" style="fill: var(--color2, #fbed1f)" d="M29.908 30.769c1.835 0 3.323-1.531 3.323-3.419v-8.348c0-1.888-1.488-3.419-3.323-3.419h-4.611c0-1.201 0.069-2.403 0.206-3.604 0.206-1.272 0.55-2.403 1.030-3.392s1.099-1.767 1.855-2.332c0.756-0.636 1.717-0.954 2.885-0.954v-5.3c-1.923 0-3.606 0.424-5.049 1.272s-2.645 1.979-3.607 3.392c-0.893 1.413-1.58 3.074-2.061 4.982-0.412 1.838-0.618 3.816-0.618 5.937v11.767c0 1.888 1.488 3.419 3.323 3.419h6.646z"></path>
<path fill="#fbed1f" style="fill: var(--color2, #fbed1f)" d="M9.969 30.769c1.835 0 3.323-1.531 3.323-3.419v-8.348c0-1.888-1.488-3.419-3.323-3.419h-4.611c0-1.201 0.069-2.403 0.206-3.604 0.206-1.272 0.55-2.403 1.030-3.392s1.099-1.767 1.855-2.332c0.756-0.636 1.717-0.954 2.885-0.954v-5.3c-1.923 0-3.606 0.424-5.049 1.272s-2.645 1.979-3.606 3.392c-0.893 1.413-1.58 3.074-2.061 4.982-0.412 1.838-0.618 3.816-0.618 5.937v11.767c0 1.888 1.488 3.419 3.323 3.419h6.646z"></path>
</symbol>
</defs>
</svg>
