<svg width="29" height="26" viewBox="0 0 29 26" fill="none" xmlns="http://www.w3.org/2000/svg">
<path d="M26.3 26C27.7912 26 29 24.7563 29 23.2222V16.4393C29 14.9052 27.7912 13.6615 26.3 13.6615H22.5535C22.5535 12.6853 22.6093 11.7092 22.7209 10.733C22.8884 9.6994 23.1674 8.78065 23.5581 7.97675C23.9488 7.17284 24.4512 6.5412 25.0651 6.08183C25.6791 5.56503 26.4605 5.30663 27.4093 5.30663V1C25.8465 1 24.4791 1.34453 23.307 2.03359C22.1349 2.72265 21.1581 3.6414 20.3767 4.78984C19.6512 5.93827 19.093 7.28768 18.7023 8.83807C18.3674 10.331 18.2 11.9388 18.2 13.6615V23.2222C18.2 24.7563 19.4088 26 20.9 26H26.3Z" fill="#3DA9F4"/>
<path d="M10.1 26C11.5912 26 12.8 24.7563 12.8 23.2222V16.4393C12.8 14.9052 11.5912 13.6615 10.1 13.6615H6.35349C6.35349 12.6853 6.4093 11.7092 6.52093 10.733C6.68837 9.6994 6.96744 8.78065 7.35814 7.97675C7.74884 7.17284 8.25117 6.5412 8.86512 6.08183C9.47907 5.56503 10.2605 5.30663 11.2093 5.30663V1C9.64651 1 8.27907 1.34453 7.10698 2.03359C5.93488 2.72265 4.95814 3.6414 4.17674 4.78984C3.45116 5.93827 2.89302 7.28768 2.50233 8.83807C2.16744 10.331 2 11.9388 2 13.6615V23.2222C2 24.7563 3.20883 26 4.7 26H10.1Z" fill="#3DA9F4"/>
<path d="M24.3 25C25.7912 25 27 23.7563 27 22.2222V15.4393C27 13.9052 25.7912 12.6615 24.3 12.6615H20.5535C20.5535 11.6853 20.6093 10.7092 20.7209 9.73299C20.8884 8.6994 21.1674 7.78065 21.5581 6.97675C21.9488 6.17284 22.4512 5.5412 23.0651 5.08183C23.6791 4.56503 24.4605 4.30663 25.4093 4.30663V0C23.8465 0 22.4791 0.34453 21.307 1.03359C20.1349 1.72265 19.1581 2.6414 18.3767 3.78984C17.6512 4.93827 17.093 6.28768 16.7023 7.83807C16.3674 9.33104 16.2 10.9388 16.2 12.6615V22.2222C16.2 23.7563 17.4088 25 18.9 25H24.3Z" fill="#FBED1F"/>
<path d="M8.1 25C9.59117 25 10.8 23.7563 10.8 22.2222V15.4393C10.8 13.9052 9.59117 12.6615 8.1 12.6615H4.35349C4.35349 11.6853 4.4093 10.7092 4.52093 9.73299C4.68837 8.6994 4.96744 7.78065 5.35814 6.97675C5.74884 6.17284 6.25117 5.5412 6.86512 5.08183C7.47907 4.56503 8.26047 4.30663 9.2093 4.30663V0C7.64651 0 6.27907 0.34453 5.10698 1.03359C3.93488 1.72265 2.95814 2.6414 2.17674 3.78984C1.45116 4.93827 0.893023 6.28768 0.502326 7.83807C0.167441 9.33104 0 10.9388 0 12.6615V22.2222C0 23.7563 1.20883 25 2.7 25H8.1Z" fill="#FBED1F"/>
</svg>
