<svg width="11" height="12" viewBox="0 0 11 12" fill="none" xmlns="http://www.w3.org/2000/svg">
<path d="M7.53641 2.84748C6.97838 2.52159 6.369 2.35864 5.70829 2.35864C5.04757 2.35864 4.4382 2.52159 3.88016 2.84748C3.32213 3.17337 2.88016 3.61534 2.55427 4.17338C2.22838 4.73141 2.06543 5.34079 2.06543 6.0015C2.06543 6.66221 2.22838 7.27159 2.55427 7.82963C2.88016 8.38766 3.32213 8.82962 3.88016 9.15552C4.4382 9.48141 5.04757 9.64436 5.70829 9.64436C6.369 9.64436 6.97838 9.48141 7.53641 9.15552C8.09445 8.82962 8.53641 8.38766 8.86231 7.82963C9.1882 7.27159 9.35114 6.66221 9.35114 6.0015C9.35114 5.34079 9.1882 4.73141 8.86231 4.17338C8.53641 3.61534 8.09445 3.17337 7.53641 2.84748ZM10.1614 3.42338C10.6212 4.20909 10.8511 5.06846 10.8511 6.0015C10.8511 6.93454 10.6212 7.79614 10.1614 8.58632C9.70159 9.37204 9.07659 9.9948 8.28641 10.4546C7.5007 10.9144 6.64132 11.1444 5.70829 11.1444C4.77525 11.1444 3.91364 10.9144 3.12347 10.4546C2.33775 9.9948 1.71498 9.37204 1.25516 8.58632C0.79534 7.79614 0.56543 6.93454 0.56543 6.0015C0.56543 5.06846 0.79534 4.20909 1.25516 3.42338C1.71498 2.6332 2.33775 2.0082 3.12347 1.54838C3.91364 1.08855 4.77525 0.858643 5.70829 0.858643C6.64132 0.858643 7.5007 1.08855 8.28641 1.54838C9.07659 2.0082 9.70159 2.6332 10.1614 3.42338Z" />
</svg>
