<svg width="102" height="102" viewBox="0 0 102 102" fill="none" xmlns="http://www.w3.org/2000/svg">
<g filter="url(#filter0_d_84_9655)">
<rect x="0.159729" y="0.388916" width="97" height="97" rx="48.5" fill="#FBED1F"/>
</g>
<path fill-rule="evenodd" clip-rule="evenodd" d="M41.1597 39.3889C40.6074 39.3889 40.1597 39.0904 40.1597 38.7222V34.0556C40.1597 33.6874 40.6074 33.3889 41.1597 33.3889C41.712 33.3889 42.1597 33.6874 42.1597 34.0556V38.7222C42.1597 39.0904 41.712 39.3889 41.1597 39.3889Z" fill="#3DA9F4"/>
<path fill-rule="evenodd" clip-rule="evenodd" d="M57.1597 39.3889C56.6074 39.3889 56.1597 39.0904 56.1597 38.7222V34.0556C56.1597 33.6874 56.6074 33.3889 57.1597 33.3889C57.712 33.3889 58.1597 33.6874 58.1597 34.0556V38.7222C58.1597 39.0904 57.712 39.3889 57.1597 39.3889Z" fill="#3DA9F4"/>
<path opacity="0.5" fill-rule="evenodd" clip-rule="evenodd" d="M51.6506 61.0205H35.3415C34.9399 61.0205 34.6143 60.7142 34.6143 60.3363V44.5994C34.6143 44.2216 34.9399 43.9152 35.3415 43.9152H62.9779C63.3796 43.9152 63.7052 44.2216 63.7052 44.5994V52.6642C64.2366 52.9918 64.7248 53.3774 65.1597 53.813V37.7573C65.1597 37.0016 64.5085 36.3889 63.7052 36.3889H59.3415V39.1258C59.3415 40.2594 58.3647 41.1784 57.1597 41.1784C55.9547 41.1784 54.9779 40.2594 54.9779 39.1258V36.3889H43.3415V39.1258C43.3415 40.2594 42.3647 41.1784 41.1597 41.1784C39.9547 41.1784 38.9779 40.2594 38.9779 39.1258V36.3889H34.6143C33.811 36.3889 33.1597 37.0016 33.1597 37.7573V61.0205C33.1597 61.7763 33.811 62.3889 34.6143 62.3889H52.2215C51.9838 61.9516 51.7925 61.4932 51.6506 61.0205Z" fill="#3DA9F4"/>
<path fill-rule="evenodd" clip-rule="evenodd" d="M59.6597 65.3889C56.0699 65.3889 53.1597 62.4788 53.1597 58.8889C53.1637 55.3007 56.0715 52.3929 59.6597 52.3889C63.2496 52.3889 66.1597 55.2991 66.1597 58.8889C66.1597 62.4788 63.2496 65.3889 59.6597 65.3889ZM63.7815 57.2329C64.0634 56.9508 64.0634 56.4937 63.7815 56.2116C63.4994 55.9297 63.0423 55.9297 62.7602 56.2116L58.2153 60.7566L56.5592 59.1005C56.2758 58.8268 55.8254 58.8307 55.5468 59.1093C55.2682 59.3879 55.2643 59.8384 55.538 60.1217L57.7047 62.2884C57.9867 62.5704 58.4439 62.5704 58.7259 62.2884L63.7815 57.2329Z" fill="#3DA9F4"/>
<defs>
<filter id="filter0_d_84_9655" x="0.159729" y="0.388916" width="101" height="101" filterUnits="userSpaceOnUse" color-interpolation-filters="sRGB">
<feFlood flood-opacity="0" result="BackgroundImageFix"/>
<feColorMatrix in="SourceAlpha" type="matrix" values="0 0 0 0 0 0 0 0 0 0 0 0 0 0 0 0 0 0 127 0" result="hardAlpha"/>
<feOffset dx="4" dy="4"/>
<feComposite in2="hardAlpha" operator="out"/>
<feColorMatrix type="matrix" values="0 0 0 0 0.239216 0 0 0 0 0.662745 0 0 0 0 0.956863 0 0 0 1 0"/>
<feBlend mode="normal" in2="BackgroundImageFix" result="effect1_dropShadow_84_9655"/>
<feBlend mode="normal" in="SourceGraphic" in2="effect1_dropShadow_84_9655" result="shape"/>
</filter>
</defs>
</svg>
