<svg width="102" height="102" viewBox="0 0 102 102" fill="none" xmlns="http://www.w3.org/2000/svg">
<g filter="url(#filter0_d_84_9681)">
<rect x="0.902679" y="0.888916" width="97" height="97" rx="48.5" fill="#FBED1F"/>
</g>
<path fill-rule="evenodd" clip-rule="evenodd" d="M37.5337 64.7299L26.9027 53.8889L29.9027 50.8889L37.9027 55.8889L60.9027 31.8889L63.9027 33.8889L40.5527 64.5419C40.2008 65.0037 39.6656 65.2898 39.0861 65.3259C38.5067 65.362 37.9401 65.1445 37.5337 64.7299Z" fill="#3DA9F4"/>
<path opacity="0.497489" fill-rule="evenodd" clip-rule="evenodd" d="M71.9027 40.8889H66.9027C66.3504 40.8889 65.9027 40.4412 65.9027 39.8889C65.9027 39.3366 66.3504 38.8889 66.9027 38.8889H71.9027C72.455 38.8889 72.9027 39.3366 72.9027 39.8889C72.9027 40.4412 72.455 40.8889 71.9027 40.8889Z" fill="#3DA9F4"/>
<path opacity="0.497489" fill-rule="evenodd" clip-rule="evenodd" d="M71.9027 49.8889H59.9027C59.3504 49.8889 58.9027 49.4412 58.9027 48.8889C58.9027 48.3366 59.3504 47.8889 59.9027 47.8889H71.9027C72.455 47.8889 72.9027 48.3366 72.9027 48.8889C72.9027 49.4412 72.455 49.8889 71.9027 49.8889Z" fill="#3DA9F4"/>
<path opacity="0.497489" fill-rule="evenodd" clip-rule="evenodd" d="M71.9027 58.8889H52.9027C52.3504 58.8889 51.9027 58.4412 51.9027 57.8889C51.9027 57.3366 52.3504 56.8889 52.9027 56.8889H71.9027C72.455 56.8889 72.9027 57.3366 72.9027 57.8889C72.9027 58.4412 72.455 58.8889 71.9027 58.8889Z" fill="#3DA9F4"/>
<path opacity="0.497489" fill-rule="evenodd" clip-rule="evenodd" d="M71.9027 67.8889H45.9027C45.3504 67.8889 44.9027 67.4412 44.9027 66.8889C44.9027 66.3366 45.3504 65.8889 45.9027 65.8889H71.9027C72.455 65.8889 72.9027 66.3366 72.9027 66.8889C72.9027 67.4412 72.455 67.8889 71.9027 67.8889Z" fill="#3DA9F4"/>
<defs>
<filter id="filter0_d_84_9681" x="0.902679" y="0.888916" width="101" height="101" filterUnits="userSpaceOnUse" color-interpolation-filters="sRGB">
<feFlood flood-opacity="0" result="BackgroundImageFix"/>
<feColorMatrix in="SourceAlpha" type="matrix" values="0 0 0 0 0 0 0 0 0 0 0 0 0 0 0 0 0 0 127 0" result="hardAlpha"/>
<feOffset dx="4" dy="4"/>
<feComposite in2="hardAlpha" operator="out"/>
<feColorMatrix type="matrix" values="0 0 0 0 0.239216 0 0 0 0 0.662745 0 0 0 0 0.956863 0 0 0 1 0"/>
<feBlend mode="normal" in2="BackgroundImageFix" result="effect1_dropShadow_84_9681"/>
<feBlend mode="normal" in="SourceGraphic" in2="effect1_dropShadow_84_9681" result="shape"/>
</filter>
</defs>
</svg>
