<svg aria-hidden="true" style="position: absolute; width: 0; height: 0; overflow: hidden;" version="1.1" xmlns="http://www.w3.org/2000/svg" xmlns:xlink="http://www.w3.org/1999/xlink">
<defs>
<symbol id="1" viewBox="0 0 32 32">
<path fill="#fbed1f" style="fill: var(--color1, #fbed1f)" d="M15.266 0.122c8.403 0 15.216 6.812 15.216 15.216s-6.812 15.216-15.216 15.216c-8.403 0-15.216-6.812-15.216-15.216s6.812-15.216 15.216-15.216z"></path>
<path fill="#3da9f4" style="fill: var(--color2, #3da9f4)" d="M12.913 12.357c-0.173 0-0.314-0.094-0.314-0.209v-1.464c0-0.116 0.14-0.209 0.314-0.209s0.314 0.094 0.314 0.209v1.464c0 0.116-0.14 0.209-0.314 0.209z"></path>
<path fill="#3da9f4" style="fill: var(--color2, #3da9f4)" d="M17.932 12.357c-0.173 0-0.314-0.094-0.314-0.209v-1.464c0-0.116 0.14-0.209 0.314-0.209s0.314 0.094 0.314 0.209v1.464c0 0.116-0.14 0.209-0.314 0.209z"></path>
<path fill="#3da9f4" style="fill: var(--color2, #3da9f4)" opacity="0.5" d="M16.204 19.144h-5.117c-0.126 0-0.228-0.096-0.228-0.215v-4.937c0-0.119 0.102-0.215 0.228-0.215h8.67c0.126 0 0.228 0.096 0.228 0.215v2.53c0.167 0.103 0.32 0.224 0.456 0.36v-5.037c0-0.237-0.204-0.429-0.456-0.429h-1.369v0.859c0 0.356-0.306 0.644-0.684 0.644s-0.684-0.288-0.684-0.644v-0.859h-3.651v0.859c0 0.356-0.306 0.644-0.684 0.644s-0.684-0.288-0.684-0.644v-0.859h-1.369c-0.252 0-0.456 0.192-0.456 0.429v7.298c0 0.237 0.204 0.429 0.456 0.429h5.524c-0.075-0.137-0.135-0.281-0.179-0.429z"></path>
<path fill="#3da9f4" style="fill: var(--color2, #3da9f4)" d="M18.717 20.514c-1.126 0-2.039-0.913-2.039-2.039 0.001-1.126 0.913-2.038 2.039-2.039 1.126 0 2.039 0.913 2.039 2.039s-0.913 2.039-2.039 2.039zM20.010 17.955c0.088-0.088 0.088-0.232 0-0.32s-0.232-0.088-0.32 0l-1.426 1.426-0.52-0.52c-0.089-0.086-0.23-0.085-0.318 0.003s-0.089 0.229-0.003 0.318l0.68 0.68c0.088 0.088 0.232 0.088 0.32 0l1.586-1.586z"></path>
</symbol>
<symbol id="2" viewBox="0 0 32 32">
<path fill="#fbed1f" style="fill: var(--color1, #fbed1f)" d="M15.379 0.122c8.403 0 15.216 6.812 15.216 15.216s-6.812 15.216-15.216 15.216c-8.403 0-15.216-6.812-15.216-15.216s6.812-15.216 15.216-15.216z"></path>
<path fill="#3da9f4" style="fill: var(--color2, #3da9f4)" opacity="0.5" d="M16.517 15.723c-1.106-0.307-2.148-0.3-3.219-0.003-0.538 0.149-0.899 0.603-0.899 1.129v0.292c0 0.13 0.112 0.235 0.251 0.235h4.518c0.139 0 0.251-0.105 0.251-0.235v-0.289c0-0.526-0.362-0.98-0.902-1.13z"></path>
<path fill="#3da9f4" style="fill: var(--color2, #3da9f4)" opacity="0.5" d="M15.065 14.867c0.795 0 1.412-0.908 1.412-1.689 0-0.799-0.633-1.448-1.412-1.448s-1.412 0.649-1.412 1.448c0 0.781 0.617 1.689 1.412 1.689z"></path>
<path fill="#3da9f4" style="fill: var(--color2, #3da9f4)" d="M19.368 18.632c-0.211 0.251-0.443 0.483-0.694 0.694l1.815 1.816 0.694-0.695-1.815-1.815z"></path>
<path fill="#3da9f4" style="fill: var(--color2, #3da9f4)" d="M15.065 9.848c2.854 0 5.176 2.322 5.176 5.176s-2.322 5.176-5.176 5.176c-2.854 0-5.176-2.322-5.176-5.176s2.322-5.176 5.176-5.176zM10.382 15.024c0 2.583 2.101 4.683 4.683 4.683s4.683-2.101 4.683-4.683c0-2.583-2.101-4.683-4.683-4.683s-4.683 2.101-4.683 4.683z"></path>
</symbol>
<symbol id="3" viewBox="0 0 32 32">
<path fill="#fbed1f" style="fill: var(--color1, #fbed1f)" d="M15.499 0.279c8.403 0 15.216 6.812 15.216 15.216s-6.812 15.216-15.216 15.216c-8.403 0-15.216-6.812-15.216-15.216s6.812-15.216 15.216-15.216z"></path>
<path fill="#3da9f4" style="fill: var(--color2, #3da9f4)" d="M11.775 20.307l-3.335-3.401 0.941-0.941 2.51 1.569 7.216-7.529 0.941 0.627-7.325 9.617c-0.11 0.145-0.278 0.235-0.46 0.246s-0.36-0.057-0.487-0.187z"></path>
<path fill="#3da9f4" style="fill: var(--color2, #3da9f4)" opacity="0.497489" d="M22.558 12.828h-1.569c-0.173 0-0.314-0.14-0.314-0.314s0.14-0.314 0.314-0.314h1.569c0.173 0 0.314 0.14 0.314 0.314s-0.14 0.314-0.314 0.314z"></path>
<path fill="#3da9f4" style="fill: var(--color2, #3da9f4)" opacity="0.497489" d="M22.558 15.651h-3.765c-0.173 0-0.314-0.14-0.314-0.314s0.14-0.314 0.314-0.314h3.765c0.173 0 0.314 0.14 0.314 0.314s-0.14 0.314-0.314 0.314z"></path>
<path fill="#3da9f4" style="fill: var(--color2, #3da9f4)" opacity="0.497489" d="M22.558 18.475h-5.961c-0.173 0-0.314-0.14-0.314-0.314s0.14-0.314 0.314-0.314h5.961c0.173 0 0.314 0.14 0.314 0.314s-0.14 0.314-0.314 0.314z"></path>
<path fill="#3da9f4" style="fill: var(--color2, #3da9f4)" opacity="0.497489" d="M22.558 21.298h-8.157c-0.173 0-0.314-0.14-0.314-0.314s0.14-0.314 0.314-0.314h8.157c0.173 0 0.314 0.14 0.314 0.314s-0.14 0.314-0.314 0.314z"></path>
</symbol>
</defs>
</svg>
