<svg width="48" height="49" viewBox="0 0 48 49" fill="none" xmlns="http://www.w3.org/2000/svg">
<rect width="48" height="48" transform="translate(0 0.950195)" fill="#3DA9F4"/>
<path d="M27.38 2.9502C26.5216 2.9502 25.7236 3.39246 25.2686 4.12046L16 18.9502V42.9502H37.5278C39.043 42.9502 40.428 42.0942 41.1056 40.739L45.1554 32.6394C45.7108 31.5286 46 30.3036 46 29.0616V20.9502C46 18.7411 44.2092 16.9502 42 16.9502H29L31.032 7.46762C31.5302 5.14262 29.7578 2.9502 27.38 2.9502Z" fill="#FBED1F"/>
<path d="M4 20.9502C4 19.8456 4.89544 18.9502 6 18.9502H12V42.9502H6C4.89544 42.9502 4 42.0548 4 40.9502V20.9502Z" fill="#FBED1F"/>
</svg>
