<svg aria-hidden="true" style="position: absolute; width: 0; height: 0; overflow: hidden;" version="1.1" xmlns="http://www.w3.org/2000/svg" xmlns:xlink="http://www.w3.org/1999/xlink">
<defs>
<symbol id="1" viewBox="0 0 31 32">
<path fill="#3da9f4" style="fill: var(--color1, #3da9f4)" d="M0 0.621h31.347v31.347h-31.347v-31.347z"></path>
<path fill="#fbed1f" style="fill: var(--color2, #fbed1f)" d="M17.101 2.279c0.369-0.517 1.185-0.256 1.185 0.38v11.023h6.568c0.531 0 0.84 0.6 0.531 1.033l-11.139 15.595c-0.369 0.517-1.185 0.256-1.185-0.38v-11.023h-6.568c-0.531 0-0.84-0.6-0.531-1.033l11.139-15.595z"></path>
</symbol>
<symbol id="2" viewBox="0 0 48 48">
<rect width="48" height="48" transform="translate(0 0.950195)" fill="#3DA9F4"/>
<path fill-rule="evenodd" clip-rule="evenodd" d="M44 24.9502C44 35.9958 35.0456 44.9502 24 44.9502C12.9543 44.9502 4 35.9958 4 24.9502C4 13.9045 12.9543 4.9502 24 4.9502C35.0456 4.9502 44 13.9045 44 24.9502ZM21 20.9502C21 22.607 19.6569 23.9502 18 23.9502C16.3431 23.9502 15 22.607 15 20.9502C15 19.2933 16.3431 17.9502 18 17.9502C19.6569 17.9502 21 19.2933 21 20.9502ZM30 23.9502C31.6568 23.9502 33 22.607 33 20.9502C33 19.2933 31.6568 17.9502 30 17.9502C28.3432 17.9502 27 19.2933 27 20.9502C27 22.607 28.3432 23.9502 30 23.9502ZM16.5155 29.9502C17.4335 29.3358 18.6626 29.6116 19.5096 30.3206C20.726 31.3392 22.2918 31.9502 24 31.9502C25.7082 31.9502 27.274 31.3392 28.4904 30.3206C29.3374 29.6116 30.5666 29.3358 31.4844 29.9502C32.4024 30.5646 32.6594 31.823 31.8896 32.615C29.8926 34.67 27.096 35.9502 24 35.9502C20.904 35.9502 18.1074 34.67 16.1104 32.615C15.3406 31.823 15.5976 30.5646 16.5155 29.9502Z" fill="#FBED1F"/>
</symbol>
<symbol id="3" viewBox="0 0 31 32">
<path fill="#3da9f4" style="fill: var(--color1, #3da9f4)" d="M0 0.621h31.347v31.347h-31.347v-31.347z"></path>
<path fill="#fbed1f" style="fill: var(--color2, #fbed1f)" d="M17.881 1.927c-0.561 0-1.082 0.289-1.379 0.764l-6.053 9.685v15.673h14.059c0.99 0 1.894-0.559 2.337-1.444l2.645-5.29c0.363-0.725 0.552-1.525 0.552-2.337v-5.297c0-1.443-1.169-2.612-2.612-2.612h-8.49l1.327-6.193c0.325-1.518-0.832-2.95-2.385-2.95z"></path>
<path fill="#fbed1f" style="fill: var(--color2, #fbed1f)" d="M2.612 13.682c0-0.721 0.585-1.306 1.306-1.306h3.918v15.673h-3.918c-0.721 0-1.306-0.585-1.306-1.306v-13.061z"></path>
</symbol>
</defs>
</svg>
