<svg aria-hidden="true" style="position: absolute; width: 0; height: 0; overflow: hidden;" version="1.1" xmlns="http://www.w3.org/2000/svg" xmlns:xlink="http://www.w3.org/1999/xlink">
<defs>
<symbol id="mail" viewBox="0 0 31 32">
<path fill="#3da9f4" style="fill: var(--color1, #3da9f4)" d="M0 0.742h31.22v31.22h-31.22v-31.22z"></path>
<path fill="#fbed1f" style="fill: var(--color2, #fbed1f)" d="M14.829 17.528l-7.024-4.056v7.562c0 0.862 0.699 1.561 1.561 1.561h12.488c0.862 0 1.561-0.699 1.561-1.561v-7.562l-7.024 4.056c-0.483 0.279-1.078 0.279-1.561 0z"></path>
<path fill="#fbed1f" style="fill: var(--color2, #fbed1f)" d="M15.61 16.176l-7.805-4.507c0-0.862 0.699-1.561 1.561-1.561h12.488c0.862 0 1.561 0.699 1.561 1.561v0.001l-7.805 4.506z"></path>
</symbol>
<symbol id="phone" viewBox="0 0 31 32">
<path fill="#3da9f4" style="fill: var(--color1, #3da9f4)" d="M0 0.742h31.22v31.22h-31.22v-31.22z"></path>
<path fill="#fbed1f" style="fill: var(--color2, #fbed1f)" d="M9.996 8.546c-0.645 0.003-1.258 0.287-1.677 0.777-0.347 0.405-0.543 0.922-0.51 1.455 0.21 3.355 1.596 6.651 4.16 9.215s5.859 3.95 9.215 4.16c0.532 0.033 1.049-0.163 1.455-0.51 0.49-0.42 0.774-1.032 0.777-1.677v-1.572c0-0.716-0.487-1.34-1.182-1.514l-2.422-0.606c-0.407-0.102-0.838-0.036-1.195 0.183l-1.801 1.104c-0.265 0.163-0.602 0.153-0.846-0.039-0.626-0.492-1.377-1.174-1.867-1.663s-1.171-1.24-1.663-1.867c-0.192-0.244-0.201-0.581-0.039-0.846l1.104-1.801c0.219-0.358 0.285-0.788 0.184-1.195l-0.606-2.422c-0.174-0.695-0.798-1.182-1.514-1.182h-1.572z"></path>
</symbol>
<symbol id="time" viewBox="0 0 31 32">
<path fill="#3da9f4" style="fill: var(--color1, #3da9f4)" d="M0 0.742h31.22v31.22h-31.22v-31.22z"></path>
<path fill="#fbed1f" style="fill: var(--color2, #fbed1f)" d="M13.437 6.986c-0.77 0-1.426 0.562-1.543 1.324l-0.357 2.318c1.149-0.819 2.554-1.3 4.072-1.3s2.924 0.482 4.072 1.3l-0.357-2.318c-0.117-0.761-0.772-1.324-1.543-1.324h-4.346z"></path>
<path fill="#fbed1f" style="fill: var(--color2, #fbed1f)" d="M18.99 20.644c1.269-1 2.083-2.551 2.083-4.293s-0.815-3.292-2.083-4.293c-0.93-0.733-2.104-1.171-3.38-1.171s-2.45 0.438-3.38 1.171c-1.269 1-2.083 2.551-2.083 4.293s0.815 3.292 2.083 4.293c0.93 0.733 2.104 1.171 3.38 1.171s2.45-0.438 3.38-1.171zM15.22 17.027c-0.241-0.139-0.39-0.397-0.39-0.676v-1.561c0-0.431 0.349-0.78 0.78-0.78s0.781 0.349 0.781 0.78v1.11l1.215 0.701c0.373 0.215 0.501 0.693 0.286 1.066s-0.693 0.501-1.066 0.286l-1.605-0.927z"></path>
<path fill="#fbed1f" style="fill: var(--color2, #fbed1f)" d="M11.537 22.075c1.149 0.819 2.554 1.3 4.072 1.3s2.924-0.482 4.072-1.3l-0.357 2.318c-0.117 0.762-0.772 1.324-1.543 1.324h-4.346c-0.77 0-1.426-0.562-1.543-1.324l-0.357-2.318z"></path>
</symbol>
</defs>
</svg>
