<svg width="40" height="41" viewBox="0 0 40 41" fill="none" xmlns="http://www.w3.org/2000/svg">
<rect width="40" height="40" transform="translate(0 0.950195)" fill="#3DA9F4"/>
<path d="M12.8069 10.9502C11.98 10.954 11.1957 11.3173 10.658 11.9455C10.2136 12.4648 9.96206 13.1272 10.0047 13.8093C10.2733 18.1084 12.0499 22.3305 15.3348 25.6154C18.6197 28.9003 22.8418 30.6769 27.1409 30.9455C27.823 30.9881 28.4854 30.7366 29.0047 30.2922C29.6329 29.7545 29.9962 28.9702 30 28.1433V26.1291C30 25.2116 29.3758 24.4118 28.4858 24.189L25.3832 23.412C24.8619 23.2815 24.3101 23.3662 23.852 23.647L21.5444 25.0617C21.2049 25.2699 20.7731 25.258 20.46 25.012C19.6576 24.3817 18.6953 23.5084 18.0685 22.8817C17.4418 22.2549 16.5685 21.2926 15.9382 20.4902C15.6922 20.1771 15.6803 19.7453 15.8885 19.4058L17.3031 17.0982C17.584 16.6401 17.6687 16.0883 17.5382 15.567L16.7612 12.4644C16.5384 11.5744 15.7386 10.9502 14.8211 10.9502H12.8069Z" fill="#FBED1F"/>
</svg>
