<svg width="40" height="41" viewBox="0 0 40 41" fill="none" xmlns="http://www.w3.org/2000/svg">
<rect width="40" height="40" transform="translate(0 0.950195)" fill="#3DA9F4"/>
<g clip-path="url(#clip0_84_13068)">
<path d="M17.2158 8.9502C16.2287 8.9502 15.3892 9.67042 15.2391 10.6461L14.7821 13.6162C16.2539 12.5672 18.0549 11.9502 20 11.9502C21.9451 11.9502 23.7461 12.5672 25.2179 13.6162L24.7609 10.6461C24.6108 9.67042 23.7713 8.9502 22.7842 8.9502H17.2158Z" fill="#FBED1F"/>
<path fill-rule="evenodd" clip-rule="evenodd" d="M24.3306 26.4502C25.9563 25.1684 27 23.1812 27 20.9502C27 18.7192 25.9563 16.732 24.3306 15.4502C23.1391 14.5108 21.635 13.9502 20 13.9502C18.365 13.9502 16.8609 14.5108 15.6694 15.4502C14.0437 16.732 13 18.7192 13 20.9502C13 23.1812 14.0437 25.1684 15.6694 26.4502C16.8609 27.3896 18.365 27.9502 20 27.9502C21.635 27.9502 23.1391 27.3896 24.3306 26.4502ZM19.5 21.8162C19.1906 21.6376 19 21.3075 19 20.9502V18.9502C19 18.3979 19.4477 17.9502 20 17.9502C20.5523 17.9502 21 18.3979 21 18.9502V20.3729L22.5568 21.2717C23.0351 21.5478 23.199 22.1594 22.9228 22.6377C22.6467 23.116 22.0351 23.2799 21.5568 23.0037L19.5 21.8162Z" fill="#FBED1F"/>
<path d="M14.7821 28.2842C16.2539 29.3332 18.0549 29.9502 20 29.9502C21.9451 29.9502 23.7461 29.3332 25.2179 28.2842L24.7609 31.2543C24.6108 32.23 23.7713 32.9502 22.7842 32.9502H17.2158C16.2287 32.9502 15.3892 32.23 15.2391 31.2543L14.7821 28.2842Z" fill="#FBED1F"/>
</g>
<defs>
<clipPath id="clip0_84_13068">
<rect width="24" height="24" fill="white" transform="translate(8 8.9502)"/>
</clipPath>
</defs>
</svg>
