<svg width="40" height="40" viewBox="0 0 40 40" fill="none" xmlns="http://www.w3.org/2000/svg">
<path fill-rule="evenodd" clip-rule="evenodd" d="M17.3996 20.228L6 8.82843L8.82843 6L20.228 17.3996L31.6276 6L34.456 8.82843L23.0564 20.228L34.2843 31.4558L31.4558 34.2843L20.228 23.0564L9.00015 34.2843L6.17172 31.4558L17.3996 20.228Z" fill="white"/>
<path fill-rule="evenodd" clip-rule="evenodd" d="M17.3996 20.228L6 8.82843L8.82843 6L20.228 17.3996L31.6276 6L34.456 8.82843L23.0564 20.228L34.2843 31.4558L31.4558 34.2843L20.228 23.0564L9.00015 34.2843L6.17172 31.4558L17.3996 20.228Z" fill="white"/>
<path fill-rule="evenodd" clip-rule="evenodd" d="M17.3996 20.228L6 8.82843L8.82843 6L20.228 17.3996L31.6276 6L34.456 8.82843L23.0564 20.228L34.2843 31.4558L31.4558 34.2843L20.228 23.0564L9.00015 34.2843L6.17172 31.4558L17.3996 20.228Z" fill="white"/>
<path fill-rule="evenodd" clip-rule="evenodd" d="M17.3996 20.228L6 8.82843L8.82843 6L20.228 17.3996L31.6276 6L34.456 8.82843L23.0564 20.228L34.2843 31.4558L31.4558 34.2843L20.228 23.0564L9.00015 34.2843L6.17172 31.4558L17.3996 20.228Z" fill="white"/>
</svg>
