<svg aria-hidden="true" style="position: absolute; width: 0; height: 0; overflow: hidden;" version="1.1" xmlns="http://www.w3.org/2000/svg" xmlns:xlink="http://www.w3.org/1999/xlink">
<defs>
<symbol id="close" viewBox="0 0 32 32">
<path fill="#fff" style="fill: var(--color1, #fff)" d="M13.92 16.182l-9.12-9.12 2.263-2.263 9.12 9.12 9.12-9.12 2.263 2.263-9.12 9.12 8.982 8.982-2.263 2.263-8.982-8.982-8.982 8.982-2.263-2.263 8.982-8.982z"></path>
</symbol>
<symbol id="open" viewBox="0 0 32 32">
<path fill="#fff" style="fill: var(--color1, #fff)" d="M4.678 8.475h23.415v3.122h-23.415v-3.122z"></path>
<path fill="#fff" style="fill: var(--color1, #fff)" d="M4.678 14.719h23.415v3.122h-23.415v-3.122z"></path>
<path fill="#fff" style="fill: var(--color1, #fff)" d="M4.678 20.963h23.415v3.122h-23.415v-3.122z"></path>
</symbol>
<symbol id="facebook" viewBox="0 0 32 32">
<path fill="#fff" style="fill: var(--color1, #fff)" d="M16.001 2.669c-7.363 0-13.332 5.969-13.332 13.332 0 6.653 4.875 12.168 11.249 13.172v-9.317h-3.387v-3.855h3.387v-2.937c0-3.344 1.991-5.188 5.035-5.188 1.459 0 2.987 0.26 2.987 0.26v3.279h-1.685c-1.653 0-2.171 1.029-2.171 2.084v2.5h3.695l-0.591 3.855h-3.104v9.317c6.375-0.999 11.249-6.515 11.249-13.169 0-7.363-5.969-13.332-13.332-13.332z"></path>
</symbol>
<symbol id="instagram" viewBox="0 0 32 32">
<path fill="#fff" style="fill: var(--color1, #fff)" d="M27.929 11.073c-0.015-1.009-0.201-2.011-0.559-2.955-0.625-1.612-1.899-2.887-3.511-3.511-0.932-0.351-1.917-0.539-2.915-0.56-1.283-0.057-1.689-0.073-4.945-0.073s-3.673 0-4.947 0.073c-0.996 0.021-1.981 0.209-2.913 0.56-1.612 0.624-2.887 1.899-3.511 3.511-0.351 0.932-0.54 1.917-0.559 2.913-0.057 1.284-0.075 1.691-0.075 4.947s0 3.672 0.075 4.947c0.020 0.997 0.208 1.981 0.559 2.916 0.625 1.611 1.899 2.885 3.512 3.509 0.928 0.363 1.913 0.568 2.913 0.6 1.284 0.057 1.691 0.075 4.947 0.075s3.673 0 4.947-0.075c0.996-0.020 1.981-0.208 2.915-0.559 1.612-0.625 2.885-1.9 3.511-3.511 0.351-0.933 0.539-1.917 0.559-2.916 0.057-1.283 0.075-1.689 0.075-4.947-0.003-3.256-0.003-3.669-0.077-4.945zM15.992 22.136c-3.405 0-6.164-2.759-6.164-6.164s2.759-6.164 6.164-6.164c3.403 0 6.164 2.759 6.164 6.164s-2.761 6.164-6.164 6.164zM22.401 11.017c-0.796 0-1.437-0.643-1.437-1.437s0.641-1.437 1.437-1.437c0.793 0 1.436 0.643 1.436 1.437s-0.643 1.437-1.436 1.437z"></path>
<path fill="#fff" style="fill: var(--color1, #fff)" d="M15.992 19.976c2.211 0 4.004-1.793 4.004-4.004s-1.793-4.004-4.004-4.004c-2.211 0-4.004 1.793-4.004 4.004s1.793 4.004 4.004 4.004z"></path>
</symbol>
<symbol id="tel" viewBox="0 0 32 32">
<path fill="#fff" style="fill: var(--color1, #fff)" d="M6.409 2.667c-1.103 0.005-2.148 0.489-2.865 1.327-0.593 0.692-0.928 1.576-0.871 2.485 0.358 5.732 2.727 11.362 7.107 15.742s10.009 6.749 15.741 7.107c0.91 0.057 1.793-0.279 2.485-0.871 0.838-0.717 1.322-1.763 1.327-2.865v-2.686c0-1.223-0.832-2.29-2.019-2.587l-4.137-1.036c-0.695-0.174-1.431-0.061-2.042 0.313l-3.077 1.886c-0.453 0.278-1.028 0.262-1.446-0.066-1.070-0.84-2.353-2.005-3.189-2.84s-2-2.119-2.84-3.189c-0.328-0.417-0.344-0.993-0.066-1.446l1.886-3.077c0.374-0.611 0.487-1.347 0.313-2.041l-1.036-4.137c-0.297-1.187-1.364-2.019-2.587-2.019h-2.686z"></path>
</symbol>
<symbol id="telegram" viewBox="0 0 32 32">
<path fill="#fff" style="fill: var(--color1, #fff)" d="M16 0c8.837 0 16 7.163 16 16s-7.163 16-16 16c-8.837 0-16-7.163-16-16s7.163-16 16-16zM23.107 9.6c-0.61 0.011-1.546 0.331-6.046 2.179-3.159 1.319-6.31 2.659-9.451 4.019-0.768 0.302-1.168 0.597-1.205 0.885-0.070 0.554 0.736 0.725 1.75 1.051 0.827 0.266 1.941 0.576 2.52 0.589 0.525 0.011 1.11-0.203 1.757-0.64 4.416-2.944 6.693-4.43 6.837-4.462 0.101-0.022 0.24-0.051 0.336 0.032 0.094 0.083 0.085 0.24 0.074 0.283-0.080 0.338-4.226 4.061-4.464 4.306l-0.115 0.115c-0.88 0.869-1.768 1.437-0.235 2.434 1.386 0.901 2.192 1.475 3.616 2.4 0.912 0.589 1.627 1.288 2.568 1.203 0.434-0.040 0.88-0.442 1.109-1.642 0.536-2.832 1.592-8.973 1.835-11.504 0.015-0.21 0.006-0.421-0.027-0.629-0.020-0.168-0.102-0.322-0.23-0.432-0.194-0.157-0.494-0.189-0.627-0.187z"></path>
</symbol>
<symbol id="youtube" viewBox="0 0 32 32">
<path fill="#fff" style="fill: var(--color1, #fff)" d="M28.791 9.604c-0.307-1.144-1.207-2.047-2.349-2.355-2.088-0.573-10.441-0.583-10.441-0.583s-8.352-0.009-10.441 0.539c-1.12 0.305-2.045 1.228-2.355 2.371-0.551 2.088-0.556 6.419-0.556 6.419s-0.005 4.352 0.541 6.419c0.307 1.143 1.207 2.045 2.351 2.353 2.109 0.573 10.44 0.583 10.44 0.583s8.353 0.009 10.441-0.537c1.141-0.307 2.045-1.208 2.356-2.351 0.552-2.087 0.556-6.416 0.556-6.416s0.027-4.353-0.543-6.441zM13.328 20.007l0.007-8 6.943 4.007-6.949 3.993z"></path>
</symbol>
</defs>
</svg>
