<svg width="16" height="16" viewBox="0 0 16 16" fill="none" xmlns="http://www.w3.org/2000/svg">
<path d="M3.20452 1.33325C2.65326 1.33579 2.13036 1.57799 1.7719 1.9968C1.47563 2.34296 1.30796 2.78457 1.33636 3.23931C1.51542 6.10541 2.69986 8.92012 4.88978 11.1101C7.07972 13.3 9.89445 14.4844 12.7605 14.6635C13.2153 14.6919 13.6569 14.5242 14.0031 14.2279C14.4219 13.8695 14.6641 13.3466 14.6666 12.7953V11.4525C14.6666 10.8409 14.2505 10.3077 13.6571 10.1591L11.5887 9.64112C11.2412 9.55412 10.8733 9.61059 10.5679 9.79779L9.02952 10.7409C8.80318 10.8797 8.51532 10.8718 8.30658 10.7078C7.77165 10.2876 7.13012 9.70539 6.71225 9.28759C6.29444 8.86972 5.71224 8.22819 5.29206 7.69325C5.12806 7.48452 5.12014 7.19665 5.2589 6.97032L6.20202 5.43189C6.38924 5.12651 6.4457 4.75863 6.35869 4.41115L5.84074 2.34271C5.69217 1.74939 5.15898 1.33325 4.54734 1.33325H3.20452Z" fill="white"/>
</svg>
