<svg width="16" height="16" viewBox="0 0 16 16" fill="none" xmlns="http://www.w3.org/2000/svg">
<g clip-path="url(#clip0_90_453)">
<path d="M8 0C12.4184 0 16 3.5816 16 8C16 12.4184 12.4184 16 8 16C3.5816 16 0 12.4184 0 8C0 3.5816 3.5816 0 8 0ZM11.5536 4.8C11.2488 4.8056 10.7808 4.9656 8.5304 5.8896C6.95079 6.54904 5.37555 7.21893 3.8048 7.8992C3.4208 8.0504 3.2208 8.1976 3.2024 8.3416C3.1672 8.6184 3.5704 8.704 4.0776 8.8672C4.4912 9 5.048 9.1552 5.3376 9.1616C5.6 9.1672 5.8928 9.06 6.216 8.8416C8.424 7.3696 9.5624 6.6264 9.6344 6.6104C9.6848 6.5992 9.7544 6.5848 9.8024 6.6264C9.8496 6.668 9.8448 6.7464 9.8392 6.768C9.7992 6.9368 7.7264 8.7984 7.6072 8.9208L7.5496 8.9784C7.1096 9.4128 6.6656 9.6968 7.432 10.1952C8.1248 10.6456 8.528 10.9328 9.24 11.3952C9.696 11.6896 10.0536 12.0392 10.524 11.9968C10.7408 11.9768 10.964 11.776 11.0784 11.176C11.3464 9.76 11.8744 6.6896 11.996 5.424C12.0034 5.31902 11.9988 5.21355 11.9824 5.1096C11.9725 5.02568 11.9314 4.94855 11.8672 4.8936C11.7704 4.8152 11.62 4.7992 11.5536 4.8Z" fill="white"/>
</g>
<defs>
<clipPath id="clip0_90_453">
<rect width="16" height="16" fill="white"/>
</clipPath>
</defs>
</svg>
