<svg width="16" height="16" viewBox="0 0 16 16" fill="none" xmlns="http://www.w3.org/2000/svg">
<path d="M14.3953 4.80192C14.242 4.22992 13.792 3.77859 13.2206 3.62459C12.1766 3.33792 7.99998 3.33326 7.99998 3.33326C7.99998 3.33326 3.82398 3.32859 2.77931 3.60259C2.21931 3.75526 1.75664 4.21659 1.60198 4.78792C1.32664 5.83192 1.32398 7.99726 1.32398 7.99726C1.32398 7.99726 1.32131 10.1733 1.59464 11.2066C1.74798 11.7779 2.19798 12.2293 2.76998 12.3833C3.82464 12.6699 7.98998 12.6746 7.98998 12.6746C7.98998 12.6746 12.1666 12.6793 13.2106 12.4059C13.7813 12.2526 14.2333 11.8019 14.3886 11.2306C14.6646 10.1873 14.6666 8.02259 14.6666 8.02259C14.6666 8.02259 14.68 5.84592 14.3953 4.80192ZM6.66398 10.0033L6.66731 6.00326L10.1386 8.00659L6.66398 10.0033Z" fill="white"/>
</svg>
