<svg width="48" height="48" viewBox="0 0 48 48" fill="none" xmlns="http://www.w3.org/2000/svg">
<rect y="20" width="28" height="28" fill="#FBED1F"/>
<path d="M42 28C42 26.9 41.1 26 40 26H36V30H40C41.1 30 42 29.1 42 28ZM40 34H36V38H40C41.1 38 42 37.1 42 36C42 34.9 41.1 34 40 34ZM24 28H20V36H24C24 38.2 25.8 40 28 40H34V24H28C25.8 24 24 25.8 24 28Z" fill="#3DA9F4"/>
<path d="M10 26C10 23.8 11.8 22 14 22H17C20.86 22 24 18.86 24 15C24 11.14 20.86 8 17 8H10C8.9 8 8 8.9 8 10C8 11.1 8.9 12 10 12H17C18.66 12 20 13.34 20 15C20 16.66 18.66 18 17 18H14C9.58 18 6 21.58 6 26C6 30.42 9.58 34 14 34H18V30H14C11.8 30 10 28.2 10 26Z" fill="#3DA9F4"/>
</svg>
