<svg width="48" height="48" viewBox="0 0 48 48" fill="none" xmlns="http://www.w3.org/2000/svg">
<rect y="20" width="28" height="28" fill="#FBED1F"/>
<path d="M22.0005 12.0002H28.0005L34.5805 5.40019C34.7664 5.21273 34.9876 5.06394 35.2313 4.96241C35.475 4.86087 35.7364 4.80859 36.0005 4.80859C36.2645 4.80859 36.5259 4.86087 36.7696 4.96241C37.0133 5.06394 37.2345 5.21273 37.4205 5.40019L42.5805 10.5802C42.953 10.9549 43.162 11.4618 43.162 11.9902C43.162 12.5186 42.953 13.0255 42.5805 13.4002L38.0005 18.0002H22.0005V22.0002C22.0005 22.5306 21.7897 23.0393 21.4147 23.4144C21.0396 23.7895 20.5309 24.0002 20.0005 24.0002C19.47 24.0002 18.9613 23.7895 18.5862 23.4144C18.2112 23.0393 18.0005 22.5306 18.0005 22.0002V16.0002C18.0005 14.9393 18.4219 13.9219 19.172 13.1718C19.9222 12.4216 20.9396 12.0002 22.0005 12.0002ZM10.0005 22.0002V30.0002L5.42045 34.5802C5.04795 34.9549 4.83887 35.4618 4.83887 35.9902C4.83887 36.5186 5.04795 37.0255 5.42045 37.4002L10.5805 42.5802C10.7664 42.7677 10.9876 42.9164 11.2313 43.018C11.475 43.1195 11.7364 43.1718 12.0005 43.1718C12.2645 43.1718 12.5259 43.1195 12.7696 43.018C13.0133 42.9164 13.2345 42.7677 13.4205 42.5802L22.0005 34.0002H30.0005C30.5309 34.0002 31.0396 33.7895 31.4147 33.4144C31.7897 33.0393 32.0005 32.5306 32.0005 32.0002V30.0002H34.0005C34.5309 30.0002 35.0396 29.7895 35.4147 29.4144C35.7897 29.0393 36.0005 28.5306 36.0005 28.0002V26.0002H38.0005C38.5309 26.0002 39.0396 25.7895 39.4147 25.4144C39.7897 25.0393 40.0005 24.5306 40.0005 24.0002V22.0002H26.0005V24.0002C26.0005 25.0611 25.579 26.0785 24.8289 26.8286C24.0787 27.5788 23.0613 28.0002 22.0005 28.0002H18.0005C16.9396 28.0002 15.9222 27.5788 15.172 26.8286C14.4219 26.0785 14.0005 25.0611 14.0005 24.0002V18.0002L10.0005 22.0002Z" fill="#3DA9F4"/>
</svg>
