<svg aria-hidden="true" style="position: absolute; width: 0; height: 0; overflow: hidden;" version="1.1" xmlns="http://www.w3.org/2000/svg" xmlns:xlink="http://www.w3.org/1999/xlink">
<defs>
<symbol id="1" viewBox="0 0 32 32">
<path fill="#fbed1f" style="fill: var(--color1, #fbed1f)" d="M0 13.333h18.667v18.667h-18.667v-18.667z"></path>
<path fill="#3da9f4" style="fill: var(--color2, #3da9f4)" d="M14.667 8h4l4.387-4.4c0.124-0.125 0.271-0.224 0.434-0.292s0.337-0.103 0.513-0.103c0.176 0 0.35 0.035 0.513 0.103s0.31 0.167 0.434 0.292l3.44 3.453c0.248 0.25 0.388 0.588 0.388 0.94s-0.139 0.69-0.388 0.94l-3.053 3.067h-10.667v2.667c0 0.354-0.141 0.693-0.391 0.943s-0.589 0.391-0.943 0.391c-0.354 0-0.693-0.14-0.943-0.391s-0.39-0.589-0.39-0.943v-4c0-0.707 0.281-1.386 0.781-1.886s1.178-0.781 1.886-0.781zM6.667 14.667v5.333l-3.053 3.053c-0.248 0.25-0.388 0.588-0.388 0.94s0.139 0.69 0.388 0.94l3.44 3.453c0.124 0.125 0.271 0.224 0.434 0.292s0.337 0.103 0.513 0.103c0.176 0 0.35-0.035 0.513-0.103s0.31-0.167 0.434-0.292l5.72-5.72h5.333c0.354 0 0.693-0.14 0.943-0.391s0.391-0.589 0.391-0.943v-1.333h1.333c0.354 0 0.693-0.14 0.943-0.391s0.391-0.589 0.391-0.943v-1.333h1.333c0.354 0 0.693-0.14 0.943-0.391s0.391-0.589 0.391-0.943v-1.333h-9.333v1.333c0 0.707-0.281 1.386-0.781 1.886s-1.178 0.781-1.886 0.781h-2.667c-0.707 0-1.386-0.281-1.886-0.781s-0.781-1.178-0.781-1.886v-4l-2.667 2.667z"></path>
</symbol>
<symbol id="2" viewBox="0 0 32 32">
<path fill="#fbed1f" style="fill: var(--color1, #fbed1f)" d="M0 13.333h18.667v18.667h-18.667v-18.667z"></path>
<path fill="#3da9f4" style="fill: var(--color2, #3da9f4)" d="M28 18.667c0-0.733-0.6-1.333-1.333-1.333h-2.667v2.667h2.667c0.733 0 1.333-0.6 1.333-1.333zM26.667 22.667h-2.667v2.667h2.667c0.733 0 1.333-0.6 1.333-1.333s-0.6-1.333-1.333-1.333zM16 18.667h-2.667v5.333h2.667c0 1.467 1.2 2.667 2.667 2.667h4v-10.667h-4c-1.467 0-2.667 1.2-2.667 2.667z"></path>
<path fill="#3da9f4" style="fill: var(--color2, #3da9f4)" d="M6.667 17.333c0-1.467 1.2-2.667 2.667-2.667h2c2.573 0 4.667-2.093 4.667-4.667s-2.093-4.667-4.667-4.667h-4.667c-0.733 0-1.333 0.6-1.333 1.333s0.6 1.333 1.333 1.333h4.667c1.107 0 2 0.893 2 2s-0.893 2-2 2h-2c-2.947 0-5.333 2.387-5.333 5.333s2.387 5.333 5.333 5.333h2.667v-2.667h-2.667c-1.467 0-2.667-1.2-2.667-2.667z"></path>
</symbol>
</defs>
</svg>
